<?xml version="1.0" encoding="UTF-8"?>
<!DOCTYPE svg PUBLIC "-//W3C//DTD SVG 1.1//EN" "http://www.w3.org/Graphics/SVG/1.1/DTD/svg11.dtd">
<svg xmlns="http://www.w3.org/2000/svg" version="1.1" width="1200px" height="1200px" style="shape-rendering:geometricPrecision; text-rendering:geometricPrecision; image-rendering:optimizeQuality; fill-rule:evenodd; clip-rule:evenodd" xmlns:xlink="http://www.w3.org/1999/xlink">
<g><path style="opacity:0.988" fill="#000000" d="M 382.5,-0.5 C 405.833,-0.5 429.167,-0.5 452.5,-0.5C 599.485,16.0297 710.318,87.6964 785,214.5C 843.731,326.271 852.731,441.938 812,561.5C 795.241,606.041 772.074,646.708 742.5,683.5C 775.486,716.986 808.653,750.32 842,783.5C 856.524,770.329 873.024,767.162 891.5,774C 897.016,776.589 902.016,779.922 906.5,784C 1004.03,881.701 1101.7,979.201 1199.5,1076.5C 1199.5,1081.5 1199.5,1086.5 1199.5,1091.5C 1163.17,1127.17 1127.17,1163.17 1091.5,1199.5C 1083.5,1199.5 1075.5,1199.5 1067.5,1199.5C 970.201,1101.7 872.701,1004.03 775,906.5C 761.464,885.805 762.63,865.972 778.5,847C 745,813.5 711.5,780 678,746.5C 581.85,820.666 473.35,849.166 352.5,832C 223.068,809.092 124.235,741.926 56,630.5C 24.1821,575.216 5.34874,515.883 -0.5,452.5C -0.5,429.167 -0.5,405.833 -0.5,382.5C 15.8286,238.594 85.4952,129.094 208.5,54C 262.703,23.4538 320.703,5.28712 382.5,-0.5 Z M 404.5,87.5 C 522.446,86.559 616.613,132.892 687,226.5C 748.644,318.004 763.311,416.67 731,522.5C 692.089,629.745 618.255,700.578 509.5,735C 391.858,765.014 287.192,740.681 195.5,662C 106.298,575.717 72.7981,471.217 95,348.5C 120.675,241.835 182.842,164.669 281.5,117C 320.849,99.7449 361.849,89.9116 404.5,87.5 Z"/></g>
</svg>
